<svg xmlns="http://www.w3.org/2000/svg" viewBox="0 0 600 338" width="600" height="338">
  <defs>
    <linearGradient id="bg-able-1" x1="0%" y1="0%" x2="100%" y2="100%">
      <stop offset="0%" stop-color="#0f172a"/>
      <stop offset="100%" stop-color="#1e293b"/>
    </linearGradient>
    <linearGradient id="accent-able" x1="0%" y1="0%" x2="100%" y2="0%">
      <stop offset="0%" stop-color="#3b82f6"/>
      <stop offset="100%" stop-color="#60a5fa"/>
    </linearGradient>
  </defs>
  <rect width="600" height="338" fill="url(#bg-able-1)"/>
  <!-- UI Mockup Wireframe -->
  <rect x="20" y="20" width="560" height="298" rx="8" fill="#1e293b" stroke="#334155" stroke-width="1.5"/>
  <rect x="20" y="20" width="560" height="40" fill="#0f172a" rx="8"/>
  <circle cx="45" cy="40" r="5" fill="#ef4444"/>
  <circle cx="62" cy="40" r="5" fill="#f59e0b"/>
  <circle cx="79" cy="40" r="5" fill="#10b981"/>
  <text x="105" y="44" fill="#94a3b8" font-family="monospace" font-size="12">ableroadmap.com — Momentum &amp; Daily Workspace</text>
  
  <!-- Dashboard Card 1 -->
  <rect x="40" y="80" width="250" height="110" rx="6" fill="#0f172a" stroke="#334155"/>
  <text x="56" y="105" fill="#60a5fa" font-family="sans-serif" font-weight="bold" font-size="14">Daily Focus &amp; Goals</text>
  <rect x="56" y="120" width="180" height="8" rx="4" fill="url(#accent-able)"/>
  <rect x="56" y="136" width="140" height="6" rx="3" fill="#334155"/>
  <rect x="56" y="150" width="200" height="6" rx="3" fill="#334155"/>

  <!-- Dashboard Card 2 -->
  <rect x="310" y="80" width="250" height="110" rx="6" fill="#0f172a" stroke="#334155"/>
  <text x="326" y="105" fill="#34d399" font-family="sans-serif" font-weight="bold" font-size="14">Habit Momentum Track</text>
  <circle cx="345" cy="140" r="18" fill="none" stroke="#10b981" stroke-width="4"/>
  <text x="340" y="145" fill="#10b981" font-family="sans-serif" font-weight="bold" font-size="12">85%</text>
  <rect x="380" y="130" width="150" height="8" rx="4" fill="#334155"/>
  <rect x="380" y="145" width="110" height="8" rx="4" fill="#10b981"/>

  <!-- Bottom Timeline -->
  <rect x="40" y="210" width="520" height="85" rx="6" fill="#0f172a" stroke="#334155"/>
  <text x="56" y="235" fill="#f8fafc" font-family="sans-serif" font-weight="bold" font-size="13">Quarterly Roadmap &amp; Milestones</text>
  <line x1="56" y1="265" x2="544" y2="265" stroke="#334155" stroke-width="2"/>
  <circle cx="120" cy="265" r="7" fill="#3b82f6"/>
  <circle cx="280" cy="265" r="7" fill="#60a5fa"/>
  <circle cx="440" cy="265" r="7" fill="#94a3b8"/>
</svg>
